<mxfile host="app.diagrams.net" modified="2024-05-13T03:55:23.370Z" agent="Mozilla/5.0 (Windows NT 10.0; Win64; x64) AppleWebKit/537.36 (KHTML, like Gecko) Chrome/124.0.0.0 Safari/537.36" etag="k3QHXmSBnEZpPKW-PcuZ" version="24.4.0" type="github">
  <diagram id="rnykveRbCm_5rDBR5KUG" name="EXERCISE-9">
    <mxGraphModel dx="1120" dy="434" grid="1" gridSize="10" guides="1" tooltips="1" connect="1" arrows="1" fold="1" page="1" pageScale="1" pageWidth="827" pageHeight="1169" math="0" shadow="0">
      <root>
        <mxCell id="0" />
        <mxCell id="1" parent="0" />
        <mxCell id="GFVc-yYqWS1LC9z0WIF0-94" value="" style="edgeStyle=orthogonalEdgeStyle;rounded=0;orthogonalLoop=1;jettySize=auto;html=1;" parent="1" target="GFVc-yYqWS1LC9z0WIF0-97" edge="1">
          <mxGeometry relative="1" as="geometry">
            <mxPoint x="267.5" y="120" as="sourcePoint" />
          </mxGeometry>
        </mxCell>
        <mxCell id="GFVc-yYqWS1LC9z0WIF0-195" value="" style="edgeStyle=orthogonalEdgeStyle;rounded=0;orthogonalLoop=1;jettySize=auto;html=1;" parent="1" source="GFVc-yYqWS1LC9z0WIF0-97" target="GFVc-yYqWS1LC9z0WIF0-194" edge="1">
          <mxGeometry relative="1" as="geometry" />
        </mxCell>
        <mxCell id="GFVc-yYqWS1LC9z0WIF0-97" value="&lt;div&gt;debut&lt;/div&gt;" style="shape=parallelogram;perimeter=parallelogramPerimeter;whiteSpace=wrap;html=1;fixedSize=1;" parent="1" vertex="1">
          <mxGeometry x="230.5" y="140" width="72.5" height="20" as="geometry" />
        </mxCell>
        <mxCell id="GFVc-yYqWS1LC9z0WIF0-98" value="" style="edgeStyle=orthogonalEdgeStyle;rounded=0;orthogonalLoop=1;jettySize=auto;html=1;" parent="1" source="GFVc-yYqWS1LC9z0WIF0-99" target="GFVc-yYqWS1LC9z0WIF0-102" edge="1">
          <mxGeometry relative="1" as="geometry" />
        </mxCell>
        <mxCell id="GFVc-yYqWS1LC9z0WIF0-99" value="&lt;div&gt;hours1, hours2, hours3, tarifa1, tarifa2, tarifa3&lt;/div&gt;" style="whiteSpace=wrap;html=1;" parent="1" vertex="1">
          <mxGeometry x="196.25" y="230" width="140" height="60" as="geometry" />
        </mxCell>
        <mxCell id="GFVc-yYqWS1LC9z0WIF0-100" value="" style="edgeStyle=orthogonalEdgeStyle;rounded=0;orthogonalLoop=1;jettySize=auto;html=1;" parent="1" source="GFVc-yYqWS1LC9z0WIF0-102" target="GFVc-yYqWS1LC9z0WIF0-104" edge="1">
          <mxGeometry relative="1" as="geometry" />
        </mxCell>
        <mxCell id="GFVc-yYqWS1LC9z0WIF0-101" value="" style="edgeStyle=orthogonalEdgeStyle;rounded=0;orthogonalLoop=1;jettySize=auto;html=1;" parent="1" source="GFVc-yYqWS1LC9z0WIF0-102" target="GFVc-yYqWS1LC9z0WIF0-108" edge="1">
          <mxGeometry relative="1" as="geometry" />
        </mxCell>
        <mxCell id="GFVc-yYqWS1LC9z0WIF0-102" value="debut==fin" style="rhombus;whiteSpace=wrap;html=1;" parent="1" vertex="1">
          <mxGeometry x="226.25" y="320" width="80" height="80" as="geometry" />
        </mxCell>
        <mxCell id="GFVc-yYqWS1LC9z0WIF0-202" value="" style="edgeStyle=orthogonalEdgeStyle;rounded=0;orthogonalLoop=1;jettySize=auto;html=1;" parent="1" source="GFVc-yYqWS1LC9z0WIF0-104" target="GFVc-yYqWS1LC9z0WIF0-201" edge="1">
          <mxGeometry relative="1" as="geometry" />
        </mxCell>
        <mxCell id="GFVc-yYqWS1LC9z0WIF0-104" value="&lt;div&gt;Que extraño, no has&lt;/div&gt;&lt;div&gt;&amp;nbsp;alquilado tu bicicleta por&lt;/div&gt;&lt;div&gt;&amp;nbsp;mucho tiempo!&lt;br&gt;&lt;/div&gt;" style="shape=parallelogram;perimeter=parallelogramPerimeter;whiteSpace=wrap;html=1;fixedSize=1;" parent="1" vertex="1">
          <mxGeometry x="347.5" y="330" width="180" height="60" as="geometry" />
        </mxCell>
        <mxCell id="GFVc-yYqWS1LC9z0WIF0-105" value="SI" style="text;html=1;align=center;verticalAlign=middle;resizable=0;points=[];autosize=1;strokeColor=none;fillColor=none;" parent="1" vertex="1">
          <mxGeometry x="307.5" y="330" width="30" height="30" as="geometry" />
        </mxCell>
        <mxCell id="GFVc-yYqWS1LC9z0WIF0-106" value="" style="edgeStyle=orthogonalEdgeStyle;rounded=0;orthogonalLoop=1;jettySize=auto;html=1;" parent="1" source="GFVc-yYqWS1LC9z0WIF0-108" target="GFVc-yYqWS1LC9z0WIF0-111" edge="1">
          <mxGeometry relative="1" as="geometry" />
        </mxCell>
        <mxCell id="GFVc-yYqWS1LC9z0WIF0-107" value="" style="edgeStyle=orthogonalEdgeStyle;rounded=0;orthogonalLoop=1;jettySize=auto;html=1;" parent="1" source="GFVc-yYqWS1LC9z0WIF0-108" target="GFVc-yYqWS1LC9z0WIF0-116" edge="1">
          <mxGeometry relative="1" as="geometry" />
        </mxCell>
        <mxCell id="GFVc-yYqWS1LC9z0WIF0-108" value="debut &amp;gt; 24&amp;nbsp;&lt;div&gt;or fin &amp;gt; 24&amp;nbsp;&lt;div&gt;or debut &amp;lt; 0 or fin &amp;lt; 0&lt;/div&gt;&lt;/div&gt;" style="rhombus;whiteSpace=wrap;html=1;" parent="1" vertex="1">
          <mxGeometry x="170" y="420" width="195" height="130" as="geometry" />
        </mxCell>
        <mxCell id="GFVc-yYqWS1LC9z0WIF0-109" value="NO" style="text;html=1;align=center;verticalAlign=middle;resizable=0;points=[];autosize=1;strokeColor=none;fillColor=none;" parent="1" vertex="1">
          <mxGeometry x="267.5" y="388" width="40" height="30" as="geometry" />
        </mxCell>
        <mxCell id="GFVc-yYqWS1LC9z0WIF0-204" value="" style="edgeStyle=orthogonalEdgeStyle;rounded=0;orthogonalLoop=1;jettySize=auto;html=1;" parent="1" source="GFVc-yYqWS1LC9z0WIF0-111" target="GFVc-yYqWS1LC9z0WIF0-203" edge="1">
          <mxGeometry relative="1" as="geometry" />
        </mxCell>
        <mxCell id="GFVc-yYqWS1LC9z0WIF0-111" value="&lt;div&gt;Las horas deben estar&amp;nbsp;&lt;/div&gt;&lt;div&gt;entre 0 y 24!&lt;br&gt;&lt;/div&gt;" style="shape=parallelogram;perimeter=parallelogramPerimeter;whiteSpace=wrap;html=1;fixedSize=1;" parent="1" vertex="1">
          <mxGeometry x="377.5" y="455" width="160" height="60" as="geometry" />
        </mxCell>
        <mxCell id="GFVc-yYqWS1LC9z0WIF0-112" value="SI" style="text;html=1;align=center;verticalAlign=middle;resizable=0;points=[];autosize=1;strokeColor=none;fillColor=none;" parent="1" vertex="1">
          <mxGeometry x="352.5" y="448" width="30" height="30" as="geometry" />
        </mxCell>
        <mxCell id="GFVc-yYqWS1LC9z0WIF0-113" value="NO" style="text;html=1;align=center;verticalAlign=middle;resizable=0;points=[];autosize=1;strokeColor=none;fillColor=none;" parent="1" vertex="1">
          <mxGeometry x="277.5" y="538" width="40" height="30" as="geometry" />
        </mxCell>
        <mxCell id="GFVc-yYqWS1LC9z0WIF0-114" value="" style="edgeStyle=orthogonalEdgeStyle;rounded=0;orthogonalLoop=1;jettySize=auto;html=1;" parent="1" source="GFVc-yYqWS1LC9z0WIF0-116" target="GFVc-yYqWS1LC9z0WIF0-118" edge="1">
          <mxGeometry relative="1" as="geometry" />
        </mxCell>
        <mxCell id="GFVc-yYqWS1LC9z0WIF0-115" value="" style="edgeStyle=orthogonalEdgeStyle;rounded=0;orthogonalLoop=1;jettySize=auto;html=1;" parent="1" source="GFVc-yYqWS1LC9z0WIF0-116" edge="1">
          <mxGeometry relative="1" as="geometry">
            <mxPoint x="267.5" y="710" as="targetPoint" />
          </mxGeometry>
        </mxCell>
        <mxCell id="GFVc-yYqWS1LC9z0WIF0-116" value="debut &amp;gt; fin" style="rhombus;whiteSpace=wrap;html=1;" parent="1" vertex="1">
          <mxGeometry x="198.75" y="600" width="137.5" height="80" as="geometry" />
        </mxCell>
        <mxCell id="GFVc-yYqWS1LC9z0WIF0-206" value="" style="edgeStyle=orthogonalEdgeStyle;rounded=0;orthogonalLoop=1;jettySize=auto;html=1;" parent="1" source="GFVc-yYqWS1LC9z0WIF0-118" target="GFVc-yYqWS1LC9z0WIF0-205" edge="1">
          <mxGeometry relative="1" as="geometry" />
        </mxCell>
        <mxCell id="GFVc-yYqWS1LC9z0WIF0-118" value="&lt;div&gt;Que extraño, el inicio del&lt;/div&gt;&lt;div&gt;&amp;nbsp;alquiler es después del&lt;/div&gt;&lt;div&gt;&amp;nbsp;final&lt;br&gt;&lt;/div&gt;" style="shape=parallelogram;perimeter=parallelogramPerimeter;whiteSpace=wrap;html=1;fixedSize=1;" parent="1" vertex="1">
          <mxGeometry x="355" y="610" width="172.5" height="60" as="geometry" />
        </mxCell>
        <mxCell id="GFVc-yYqWS1LC9z0WIF0-119" value="SI" style="text;html=1;align=center;verticalAlign=middle;resizable=0;points=[];autosize=1;strokeColor=none;fillColor=none;" parent="1" vertex="1">
          <mxGeometry x="322.5" y="608" width="30" height="30" as="geometry" />
        </mxCell>
        <mxCell id="GFVc-yYqWS1LC9z0WIF0-121" value="" style="edgeStyle=orthogonalEdgeStyle;rounded=0;orthogonalLoop=1;jettySize=auto;html=1;" parent="1" target="GFVc-yYqWS1LC9z0WIF0-129" edge="1">
          <mxGeometry relative="1" as="geometry">
            <mxPoint x="267.5" y="820" as="sourcePoint" />
          </mxGeometry>
        </mxCell>
        <mxCell id="GFVc-yYqWS1LC9z0WIF0-123" value="NO" style="text;html=1;align=center;verticalAlign=middle;resizable=0;points=[];autosize=1;strokeColor=none;fillColor=none;" parent="1" vertex="1">
          <mxGeometry x="347.5" y="728" width="40" height="30" as="geometry" />
        </mxCell>
        <mxCell id="GFVc-yYqWS1LC9z0WIF0-126" value="NO" style="text;html=1;align=center;verticalAlign=middle;resizable=0;points=[];autosize=1;strokeColor=none;fillColor=none;" parent="1" vertex="1">
          <mxGeometry x="267.5" y="678" width="40" height="30" as="geometry" />
        </mxCell>
        <mxCell id="GFVc-yYqWS1LC9z0WIF0-127" value="" style="edgeStyle=orthogonalEdgeStyle;rounded=0;orthogonalLoop=1;jettySize=auto;html=1;" parent="1" source="GFVc-yYqWS1LC9z0WIF0-129" target="GFVc-yYqWS1LC9z0WIF0-132" edge="1">
          <mxGeometry relative="1" as="geometry" />
        </mxCell>
        <mxCell id="GFVc-yYqWS1LC9z0WIF0-128" value="" style="edgeStyle=orthogonalEdgeStyle;rounded=0;orthogonalLoop=1;jettySize=auto;html=1;" parent="1" source="GFVc-yYqWS1LC9z0WIF0-129" target="GFVc-yYqWS1LC9z0WIF0-139" edge="1">
          <mxGeometry relative="1" as="geometry" />
        </mxCell>
        <mxCell id="GFVc-yYqWS1LC9z0WIF0-129" value="debut &amp;lt;= 7 and fin &amp;lt;= 7" style="rhombus;whiteSpace=wrap;html=1;" parent="1" vertex="1">
          <mxGeometry x="192.5" y="860" width="150" height="90" as="geometry" />
        </mxCell>
        <mxCell id="GFVc-yYqWS1LC9z0WIF0-130" value="SI" style="text;html=1;align=center;verticalAlign=middle;resizable=0;points=[];autosize=1;strokeColor=none;fillColor=none;" parent="1" vertex="1">
          <mxGeometry x="282.5" y="818" width="30" height="30" as="geometry" />
        </mxCell>
        <mxCell id="GFVc-yYqWS1LC9z0WIF0-131" value="" style="edgeStyle=orthogonalEdgeStyle;rounded=0;orthogonalLoop=1;jettySize=auto;html=1;" parent="1" source="GFVc-yYqWS1LC9z0WIF0-132" target="GFVc-yYqWS1LC9z0WIF0-135" edge="1">
          <mxGeometry relative="1" as="geometry" />
        </mxCell>
        <mxCell id="GFVc-yYqWS1LC9z0WIF0-132" value="hours1 = fin-debut&lt;div&gt;tarifa1 = hours1 *1&lt;/div&gt;" style="whiteSpace=wrap;html=1;" parent="1" vertex="1">
          <mxGeometry x="377.5" y="875" width="120" height="60" as="geometry" />
        </mxCell>
        <mxCell id="GFVc-yYqWS1LC9z0WIF0-133" value="SI" style="text;html=1;align=center;verticalAlign=middle;resizable=0;points=[];autosize=1;strokeColor=none;fillColor=none;" parent="1" vertex="1">
          <mxGeometry x="332.5" y="858" width="30" height="30" as="geometry" />
        </mxCell>
        <mxCell id="GFVc-yYqWS1LC9z0WIF0-210" value="" style="edgeStyle=orthogonalEdgeStyle;rounded=0;orthogonalLoop=1;jettySize=auto;html=1;" parent="1" source="GFVc-yYqWS1LC9z0WIF0-135" target="GFVc-yYqWS1LC9z0WIF0-209" edge="1">
          <mxGeometry relative="1" as="geometry" />
        </mxCell>
        <mxCell id="GFVc-yYqWS1LC9z0WIF0-135" value="&lt;div&gt;&lt;span style=&quot;background-color: initial;&quot;&gt;Haz alquilado una bicicleta por&lt;/span&gt;&lt;br&gt;&lt;/div&gt;&lt;div&gt;[hours1] hora(s) con el tarifario de 1 boliviano(s)&lt;br&gt;&lt;/div&gt;&lt;div&gt;El monto total a pagar es de [tarifa1] boliviano(s).&lt;br&gt;&lt;/div&gt;" style="shape=parallelogram;perimeter=parallelogramPerimeter;whiteSpace=wrap;html=1;fixedSize=1;" parent="1" vertex="1">
          <mxGeometry x="537.5" y="875" width="340" height="60" as="geometry" />
        </mxCell>
        <mxCell id="GFVc-yYqWS1LC9z0WIF0-136" value="NO" style="text;html=1;align=center;verticalAlign=middle;resizable=0;points=[];autosize=1;strokeColor=none;fillColor=none;" parent="1" vertex="1">
          <mxGeometry x="287.5" y="938" width="40" height="30" as="geometry" />
        </mxCell>
        <mxCell id="GFVc-yYqWS1LC9z0WIF0-137" value="" style="edgeStyle=orthogonalEdgeStyle;rounded=0;orthogonalLoop=1;jettySize=auto;html=1;" parent="1" source="GFVc-yYqWS1LC9z0WIF0-139" target="GFVc-yYqWS1LC9z0WIF0-141" edge="1">
          <mxGeometry relative="1" as="geometry" />
        </mxCell>
        <mxCell id="GFVc-yYqWS1LC9z0WIF0-138" value="" style="edgeStyle=orthogonalEdgeStyle;rounded=0;orthogonalLoop=1;jettySize=auto;html=1;" parent="1" source="GFVc-yYqWS1LC9z0WIF0-139" target="GFVc-yYqWS1LC9z0WIF0-148" edge="1">
          <mxGeometry relative="1" as="geometry" />
        </mxCell>
        <mxCell id="GFVc-yYqWS1LC9z0WIF0-139" value="debut &amp;lt;= 17 and&amp;nbsp;&lt;div&gt;debut &amp;gt;= 7 and fin &amp;gt;= 7 and&lt;/div&gt;&lt;div&gt;&amp;nbsp;fin &amp;lt;= 17&lt;/div&gt;" style="rhombus;whiteSpace=wrap;html=1;" parent="1" vertex="1">
          <mxGeometry x="176.5" y="1000" width="182" height="100" as="geometry" />
        </mxCell>
        <mxCell id="GFVc-yYqWS1LC9z0WIF0-140" value="" style="edgeStyle=orthogonalEdgeStyle;rounded=0;orthogonalLoop=1;jettySize=auto;html=1;" parent="1" source="GFVc-yYqWS1LC9z0WIF0-141" target="GFVc-yYqWS1LC9z0WIF0-144" edge="1">
          <mxGeometry relative="1" as="geometry" />
        </mxCell>
        <mxCell id="GFVc-yYqWS1LC9z0WIF0-141" value="&lt;div&gt;hours1 = fin - debut&lt;/div&gt;&lt;div&gt;&amp;nbsp;tarifa1 = hours1 * 2&lt;/div&gt;" style="whiteSpace=wrap;html=1;" parent="1" vertex="1">
          <mxGeometry x="387.5" y="1020" width="140" height="60" as="geometry" />
        </mxCell>
        <mxCell id="GFVc-yYqWS1LC9z0WIF0-142" value="SI" style="text;html=1;align=center;verticalAlign=middle;resizable=0;points=[];autosize=1;strokeColor=none;fillColor=none;" parent="1" vertex="1">
          <mxGeometry x="342.5" y="1018" width="30" height="30" as="geometry" />
        </mxCell>
        <mxCell id="GFVc-yYqWS1LC9z0WIF0-212" value="" style="edgeStyle=orthogonalEdgeStyle;rounded=0;orthogonalLoop=1;jettySize=auto;html=1;" parent="1" source="GFVc-yYqWS1LC9z0WIF0-144" target="GFVc-yYqWS1LC9z0WIF0-211" edge="1">
          <mxGeometry relative="1" as="geometry" />
        </mxCell>
        <mxCell id="GFVc-yYqWS1LC9z0WIF0-144" value="&lt;div&gt;&lt;span style=&quot;background-color: initial;&quot;&gt;Haz alquilado una bicicleta por&lt;/span&gt;&lt;div&gt;&lt;div&gt;[hours1] hora(s) con el tarifario de 2 boliviano(s)&lt;/div&gt;&lt;div&gt;&lt;span style=&quot;background-color: initial;&quot;&gt;El monto total a pagar es de [tarifa1] boliviano(s).&lt;/span&gt;&lt;/div&gt;&lt;/div&gt;&lt;/div&gt;" style="shape=parallelogram;perimeter=parallelogramPerimeter;whiteSpace=wrap;html=1;fixedSize=1;" parent="1" vertex="1">
          <mxGeometry x="547.5" y="1020" width="340" height="60" as="geometry" />
        </mxCell>
        <mxCell id="GFVc-yYqWS1LC9z0WIF0-145" value="NO" style="text;html=1;align=center;verticalAlign=middle;resizable=0;points=[];autosize=1;strokeColor=none;fillColor=none;" parent="1" vertex="1">
          <mxGeometry x="277.5" y="1100" width="40" height="30" as="geometry" />
        </mxCell>
        <mxCell id="GFVc-yYqWS1LC9z0WIF0-146" value="" style="edgeStyle=orthogonalEdgeStyle;rounded=0;orthogonalLoop=1;jettySize=auto;html=1;" parent="1" source="GFVc-yYqWS1LC9z0WIF0-148" target="GFVc-yYqWS1LC9z0WIF0-150" edge="1">
          <mxGeometry relative="1" as="geometry" />
        </mxCell>
        <mxCell id="GFVc-yYqWS1LC9z0WIF0-147" value="" style="edgeStyle=orthogonalEdgeStyle;rounded=0;orthogonalLoop=1;jettySize=auto;html=1;" parent="1" source="GFVc-yYqWS1LC9z0WIF0-148" target="GFVc-yYqWS1LC9z0WIF0-156" edge="1">
          <mxGeometry relative="1" as="geometry" />
        </mxCell>
        <mxCell id="GFVc-yYqWS1LC9z0WIF0-148" value="debut &amp;lt;= 24 and&amp;nbsp;&lt;div&gt;debut &amp;gt;= 17 and fin &amp;gt;= 17&amp;nbsp;&lt;/div&gt;&lt;div&gt;and fin &amp;lt;= 24&lt;/div&gt;" style="rhombus;whiteSpace=wrap;html=1;" parent="1" vertex="1">
          <mxGeometry x="181.5" y="1159" width="171" height="110" as="geometry" />
        </mxCell>
        <mxCell id="GFVc-yYqWS1LC9z0WIF0-149" value="" style="edgeStyle=orthogonalEdgeStyle;rounded=0;orthogonalLoop=1;jettySize=auto;html=1;" parent="1" source="GFVc-yYqWS1LC9z0WIF0-150" target="GFVc-yYqWS1LC9z0WIF0-153" edge="1">
          <mxGeometry relative="1" as="geometry" />
        </mxCell>
        <mxCell id="GFVc-yYqWS1LC9z0WIF0-150" value="&lt;div&gt;hours1 = fin - debut&lt;/div&gt;&lt;div&gt;&lt;span style=&quot;background-color: initial;&quot;&gt;tarifa1 = hours1 * 1&lt;/span&gt;&lt;/div&gt;" style="whiteSpace=wrap;html=1;" parent="1" vertex="1">
          <mxGeometry x="387.5" y="1184" width="126.25" height="60" as="geometry" />
        </mxCell>
        <mxCell id="GFVc-yYqWS1LC9z0WIF0-151" value="SI" style="text;html=1;align=center;verticalAlign=middle;resizable=0;points=[];autosize=1;strokeColor=none;fillColor=none;" parent="1" vertex="1">
          <mxGeometry x="352.5" y="1178" width="30" height="30" as="geometry" />
        </mxCell>
        <mxCell id="GFVc-yYqWS1LC9z0WIF0-214" value="" style="edgeStyle=orthogonalEdgeStyle;rounded=0;orthogonalLoop=1;jettySize=auto;html=1;" parent="1" source="GFVc-yYqWS1LC9z0WIF0-153" target="GFVc-yYqWS1LC9z0WIF0-213" edge="1">
          <mxGeometry relative="1" as="geometry" />
        </mxCell>
        <mxCell id="GFVc-yYqWS1LC9z0WIF0-153" value="&lt;div&gt;&lt;div&gt;Haz alquilado una bicicleta por&lt;/div&gt;&lt;div&gt;&lt;span style=&quot;background-color: initial;&quot;&gt;[hours1] hora(s) con el tarifario de 1 boliviano(s)&lt;/span&gt;&lt;/div&gt;&lt;div&gt;&lt;span style=&quot;background-color: initial;&quot;&gt;El monto total a pagar es de [tarifa1]boliviano(s).&amp;nbsp;&lt;/span&gt;&lt;/div&gt;&lt;/div&gt;" style="shape=parallelogram;perimeter=parallelogramPerimeter;whiteSpace=wrap;html=1;fixedSize=1;" parent="1" vertex="1">
          <mxGeometry x="537.51" y="1184" width="329.99" height="60" as="geometry" />
        </mxCell>
        <mxCell id="GFVc-yYqWS1LC9z0WIF0-154" value="" style="edgeStyle=orthogonalEdgeStyle;rounded=0;orthogonalLoop=1;jettySize=auto;html=1;" parent="1" source="GFVc-yYqWS1LC9z0WIF0-156" target="GFVc-yYqWS1LC9z0WIF0-160" edge="1">
          <mxGeometry relative="1" as="geometry" />
        </mxCell>
        <mxCell id="GFVc-yYqWS1LC9z0WIF0-155" value="" style="edgeStyle=orthogonalEdgeStyle;rounded=0;orthogonalLoop=1;jettySize=auto;html=1;" parent="1" source="GFVc-yYqWS1LC9z0WIF0-156" target="GFVc-yYqWS1LC9z0WIF0-165" edge="1">
          <mxGeometry relative="1" as="geometry" />
        </mxCell>
        <mxCell id="GFVc-yYqWS1LC9z0WIF0-156" value="debut &amp;lt;= 7 and fin &amp;gt;= 7&amp;nbsp;&lt;div&gt;and fin &amp;lt;= 17&lt;br&gt;&lt;/div&gt;" style="rhombus;whiteSpace=wrap;html=1;" parent="1" vertex="1">
          <mxGeometry x="175" y="1320" width="183.5" height="101" as="geometry" />
        </mxCell>
        <mxCell id="GFVc-yYqWS1LC9z0WIF0-157" value="NO" style="text;html=1;align=center;verticalAlign=middle;resizable=0;points=[];autosize=1;strokeColor=none;fillColor=none;" parent="1" vertex="1">
          <mxGeometry x="277.5" y="1278" width="40" height="30" as="geometry" />
        </mxCell>
        <mxCell id="GFVc-yYqWS1LC9z0WIF0-158" value="SI" style="text;html=1;align=center;verticalAlign=middle;resizable=0;points=[];autosize=1;strokeColor=none;fillColor=none;" parent="1" vertex="1">
          <mxGeometry x="342.5" y="1328" width="30" height="30" as="geometry" />
        </mxCell>
        <mxCell id="GFVc-yYqWS1LC9z0WIF0-159" value="" style="edgeStyle=orthogonalEdgeStyle;rounded=0;orthogonalLoop=1;jettySize=auto;html=1;entryX=0;entryY=0.5;entryDx=0;entryDy=0;" parent="1" source="GFVc-yYqWS1LC9z0WIF0-160" target="GFVc-yYqWS1LC9z0WIF0-162" edge="1">
          <mxGeometry relative="1" as="geometry" />
        </mxCell>
        <mxCell id="GFVc-yYqWS1LC9z0WIF0-160" value="&lt;div&gt;hours1 = 7-debut&lt;/div&gt;&lt;div&gt;&lt;span style=&quot;background-color: initial;&quot;&gt;tarifa1 = hours1 * 1&lt;/span&gt;&lt;/div&gt;&lt;div&gt;&lt;span style=&quot;background-color: initial;&quot;&gt;hours2 = (fin-debut) - hours1&lt;/span&gt;&lt;/div&gt;&lt;div&gt;&lt;span style=&quot;background-color: initial;&quot;&gt;tarifa2 = hours2 * 2&lt;/span&gt;&lt;/div&gt;" style="whiteSpace=wrap;html=1;" parent="1" vertex="1">
          <mxGeometry x="382.5" y="1340.5" width="165" height="60" as="geometry" />
        </mxCell>
        <mxCell id="GFVc-yYqWS1LC9z0WIF0-216" value="" style="edgeStyle=orthogonalEdgeStyle;rounded=0;orthogonalLoop=1;jettySize=auto;html=1;" parent="1" source="GFVc-yYqWS1LC9z0WIF0-162" target="GFVc-yYqWS1LC9z0WIF0-215" edge="1">
          <mxGeometry relative="1" as="geometry" />
        </mxCell>
        <mxCell id="GFVc-yYqWS1LC9z0WIF0-162" value="&lt;div&gt;&lt;div&gt;Haz alquilado una bicicleta por&lt;/div&gt;&lt;div&gt;&lt;span style=&quot;background-color: initial;&quot;&gt;[hours1] hora(s) con el tarifario de 1 boliviano(s)&lt;/span&gt;&lt;/div&gt;&lt;div&gt;&lt;span style=&quot;background-color: initial;&quot;&gt;[hours2] hora(s) con el tarifario de 2 boliviano(s)&lt;/span&gt;&lt;/div&gt;&lt;div&gt;&lt;span style=&quot;background-color: initial;&quot;&gt;El monto total a pagar es de [tarifa1 + tarifa2] boliviano(s).&lt;/span&gt;&lt;/div&gt;&lt;/div&gt;" style="shape=parallelogram;perimeter=parallelogramPerimeter;whiteSpace=wrap;html=1;fixedSize=1;" parent="1" vertex="1">
          <mxGeometry x="554.5" y="1330.75" width="380" height="79.5" as="geometry" />
        </mxCell>
        <mxCell id="GFVc-yYqWS1LC9z0WIF0-163" value="" style="edgeStyle=orthogonalEdgeStyle;rounded=0;orthogonalLoop=1;jettySize=auto;html=1;" parent="1" source="GFVc-yYqWS1LC9z0WIF0-165" target="GFVc-yYqWS1LC9z0WIF0-168" edge="1">
          <mxGeometry relative="1" as="geometry" />
        </mxCell>
        <mxCell id="GFVc-yYqWS1LC9z0WIF0-164" value="" style="edgeStyle=orthogonalEdgeStyle;rounded=0;orthogonalLoop=1;jettySize=auto;html=1;" parent="1" source="GFVc-yYqWS1LC9z0WIF0-165" target="GFVc-yYqWS1LC9z0WIF0-174" edge="1">
          <mxGeometry relative="1" as="geometry" />
        </mxCell>
        <mxCell id="GFVc-yYqWS1LC9z0WIF0-165" value="debut &amp;lt;= 7 and fin &amp;gt;= 17&amp;nbsp;&lt;div&gt;and fin &amp;lt;= 24&lt;/div&gt;" style="rhombus;whiteSpace=wrap;html=1;" parent="1" vertex="1">
          <mxGeometry x="170" y="1470" width="192.5" height="89" as="geometry" />
        </mxCell>
        <mxCell id="GFVc-yYqWS1LC9z0WIF0-166" value="NO" style="text;html=1;align=center;verticalAlign=middle;resizable=0;points=[];autosize=1;strokeColor=none;fillColor=none;" parent="1" vertex="1">
          <mxGeometry x="267.5" y="1428" width="40" height="30" as="geometry" />
        </mxCell>
        <mxCell id="GFVc-yYqWS1LC9z0WIF0-167" value="" style="edgeStyle=orthogonalEdgeStyle;rounded=0;orthogonalLoop=1;jettySize=auto;html=1;" parent="1" source="GFVc-yYqWS1LC9z0WIF0-168" target="GFVc-yYqWS1LC9z0WIF0-171" edge="1">
          <mxGeometry relative="1" as="geometry" />
        </mxCell>
        <mxCell id="GFVc-yYqWS1LC9z0WIF0-168" value="&lt;div&gt;&lt;span style=&quot;background-color: initial;&quot;&gt;tarifa1 = (7-debut) * 1&lt;/span&gt;&lt;br&gt;&lt;/div&gt;&lt;div&gt;&lt;span style=&quot;background-color: initial;&quot;&gt;tarifa2 = (fin-17) * 1&lt;/span&gt;&lt;/div&gt;&lt;div&gt;&lt;span style=&quot;background-color: initial;&quot;&gt;hours1 = (7-debut) + (fin-17)&lt;/span&gt;&lt;/div&gt;&lt;div&gt;&lt;span style=&quot;background-color: initial;&quot;&gt;hours2 = (fin - debut) - hours1&lt;/span&gt;&lt;/div&gt;&lt;div&gt;&lt;span style=&quot;background-color: initial;&quot;&gt;tarifa3 = hours2 * 2&lt;/span&gt;&lt;/div&gt;" style="whiteSpace=wrap;html=1;" parent="1" vertex="1">
          <mxGeometry x="387.5" y="1466.75" width="190" height="95.5" as="geometry" />
        </mxCell>
        <mxCell id="GFVc-yYqWS1LC9z0WIF0-169" value="SI" style="text;html=1;align=center;verticalAlign=middle;resizable=0;points=[];autosize=1;strokeColor=none;fillColor=none;" parent="1" vertex="1">
          <mxGeometry x="352.5" y="1478" width="30" height="30" as="geometry" />
        </mxCell>
        <mxCell id="GFVc-yYqWS1LC9z0WIF0-218" value="" style="edgeStyle=orthogonalEdgeStyle;rounded=0;orthogonalLoop=1;jettySize=auto;html=1;" parent="1" source="GFVc-yYqWS1LC9z0WIF0-171" target="GFVc-yYqWS1LC9z0WIF0-217" edge="1">
          <mxGeometry relative="1" as="geometry" />
        </mxCell>
        <mxCell id="GFVc-yYqWS1LC9z0WIF0-171" value="&lt;div&gt;&lt;div&gt;Haz alquilado una bicicleta por&lt;/div&gt;&lt;div&gt;&lt;span style=&quot;background-color: initial;&quot;&gt;[hours1] hora(s) con el tarifario de 1 boliviano(s)&lt;/span&gt;&lt;/div&gt;&lt;div&gt;&lt;span style=&quot;background-color: initial;&quot;&gt;[hours2] hora(s) con el tarifario de 2 boliviano(s)&lt;/span&gt;&lt;/div&gt;&lt;div&gt;El monto total a pagar es de [tarifa1 + tarifa2 + tarifa3]&lt;/div&gt;&lt;div&gt;&amp;nbsp;boliviano(s).&lt;/div&gt;&lt;/div&gt;" style="shape=parallelogram;perimeter=parallelogramPerimeter;whiteSpace=wrap;html=1;fixedSize=1;" parent="1" vertex="1">
          <mxGeometry x="587.5" y="1466.75" width="370" height="95.5" as="geometry" />
        </mxCell>
        <mxCell id="GFVc-yYqWS1LC9z0WIF0-173" value="" style="edgeStyle=orthogonalEdgeStyle;rounded=0;orthogonalLoop=1;jettySize=auto;html=1;" parent="1" source="GFVc-yYqWS1LC9z0WIF0-174" target="GFVc-yYqWS1LC9z0WIF0-180" edge="1">
          <mxGeometry relative="1" as="geometry" />
        </mxCell>
        <mxCell id="GFVc-yYqWS1LC9z0WIF0-192" value="" style="edgeStyle=orthogonalEdgeStyle;rounded=0;orthogonalLoop=1;jettySize=auto;html=1;" parent="1" source="GFVc-yYqWS1LC9z0WIF0-174" target="GFVc-yYqWS1LC9z0WIF0-191" edge="1">
          <mxGeometry relative="1" as="geometry" />
        </mxCell>
        <mxCell id="GFVc-yYqWS1LC9z0WIF0-174" value="debut &amp;lt;= 17&amp;nbsp;&lt;div&gt;and debut &amp;gt;= 7&amp;nbsp;&lt;span style=&quot;background-color: initial;&quot;&gt;and fin &amp;gt;= 17&amp;nbsp;&lt;/span&gt;&lt;div&gt;and fin &amp;lt;= 24&lt;br&gt;&lt;/div&gt;&lt;/div&gt;" style="rhombus;whiteSpace=wrap;html=1;" parent="1" vertex="1">
          <mxGeometry x="170" y="1639" width="192.5" height="89" as="geometry" />
        </mxCell>
        <mxCell id="GFVc-yYqWS1LC9z0WIF0-175" value="NO" style="text;html=1;align=center;verticalAlign=middle;resizable=0;points=[];autosize=1;strokeColor=none;fillColor=none;" parent="1" vertex="1">
          <mxGeometry x="267.5" y="1548" width="40" height="30" as="geometry" />
        </mxCell>
        <mxCell id="GFVc-yYqWS1LC9z0WIF0-176" value="SI" style="text;html=1;align=center;verticalAlign=middle;resizable=0;points=[];autosize=1;strokeColor=none;fillColor=none;" parent="1" vertex="1">
          <mxGeometry x="355" y="1650" width="30" height="30" as="geometry" />
        </mxCell>
        <mxCell id="GFVc-yYqWS1LC9z0WIF0-177" value="NO" style="text;html=1;align=center;verticalAlign=middle;resizable=0;points=[];autosize=1;strokeColor=none;fillColor=none;" parent="1" vertex="1">
          <mxGeometry x="273.13" y="1723.5100000000002" width="40" height="30" as="geometry" />
        </mxCell>
        <mxCell id="GFVc-yYqWS1LC9z0WIF0-179" value="" style="edgeStyle=orthogonalEdgeStyle;rounded=0;orthogonalLoop=1;jettySize=auto;html=1;entryX=0;entryY=0.5;entryDx=0;entryDy=0;" parent="1" source="GFVc-yYqWS1LC9z0WIF0-180" target="GFVc-yYqWS1LC9z0WIF0-182" edge="1">
          <mxGeometry relative="1" as="geometry" />
        </mxCell>
        <mxCell id="GFVc-yYqWS1LC9z0WIF0-180" value="&lt;div&gt;hours1 = 17-debut&lt;/div&gt;&lt;div&gt;&lt;span style=&quot;background-color: initial;&quot;&gt;tarifa1 = (17-debut) * 2&lt;/span&gt;&lt;/div&gt;&lt;div&gt;&lt;span style=&quot;background-color: initial;&quot;&gt;hours2 = (fin-debut) - (17-debut)&lt;/span&gt;&lt;/div&gt;&lt;div&gt;&lt;span style=&quot;background-color: initial;&quot;&gt;tarifa2 = hours2 * 1&lt;/span&gt;&lt;/div&gt;" style="whiteSpace=wrap;html=1;" parent="1" vertex="1">
          <mxGeometry x="385" y="1650.25" width="182.5" height="66.5" as="geometry" />
        </mxCell>
        <mxCell id="GFVc-yYqWS1LC9z0WIF0-221" value="" style="edgeStyle=orthogonalEdgeStyle;rounded=0;orthogonalLoop=1;jettySize=auto;html=1;" parent="1" source="GFVc-yYqWS1LC9z0WIF0-182" target="GFVc-yYqWS1LC9z0WIF0-220" edge="1">
          <mxGeometry relative="1" as="geometry" />
        </mxCell>
        <mxCell id="GFVc-yYqWS1LC9z0WIF0-182" value="&lt;div&gt;&lt;span style=&quot;background-color: initial;&quot;&gt;Haz alquilado una bicicleta por&lt;/span&gt;&lt;br&gt;&lt;/div&gt;&lt;div&gt;&lt;span style=&quot;background-color: initial;&quot;&gt;[hours2] hora(s) con el tarifario de 1 boliviano(s)&lt;/span&gt;&lt;/div&gt;&lt;div&gt;&lt;span style=&quot;background-color: initial;&quot;&gt;[hours1] hora(s) con el tarifario de 2 boliviano(s)&lt;/span&gt;&lt;/div&gt;&lt;div&gt;&lt;span style=&quot;background-color: initial;&quot;&gt;El monto total a pagar es de [tarifa1 + tarifa2] boliviano(s).&lt;/span&gt;&lt;/div&gt;" style="shape=parallelogram;perimeter=parallelogramPerimeter;whiteSpace=wrap;html=1;fixedSize=1;" parent="1" vertex="1">
          <mxGeometry x="581.5" y="1633.63" width="376" height="99.75" as="geometry" />
        </mxCell>
        <mxCell id="GFVc-yYqWS1LC9z0WIF0-208" value="" style="edgeStyle=orthogonalEdgeStyle;rounded=0;orthogonalLoop=1;jettySize=auto;html=1;" parent="1" source="GFVc-yYqWS1LC9z0WIF0-190" target="GFVc-yYqWS1LC9z0WIF0-207" edge="1">
          <mxGeometry relative="1" as="geometry" />
        </mxCell>
        <mxCell id="GFVc-yYqWS1LC9z0WIF0-190" value="debut &amp;gt;=0 and debut &amp;lt;= 24&amp;nbsp;&lt;div&gt;and fin &amp;gt;=0 and fin &amp;lt;=24&lt;/div&gt;" style="rhombus;whiteSpace=wrap;html=1;" parent="1" vertex="1">
          <mxGeometry x="167" y="710" width="200" height="110" as="geometry" />
        </mxCell>
        <mxCell id="GFVc-yYqWS1LC9z0WIF0-191" value="FIN" style="rounded=1;whiteSpace=wrap;html=1;" parent="1" vertex="1">
          <mxGeometry x="219.38" y="1763.38" width="93.75" height="37.5" as="geometry" />
        </mxCell>
        <mxCell id="GFVc-yYqWS1LC9z0WIF0-198" value="" style="edgeStyle=orthogonalEdgeStyle;rounded=0;orthogonalLoop=1;jettySize=auto;html=1;" parent="1" source="GFVc-yYqWS1LC9z0WIF0-194" target="GFVc-yYqWS1LC9z0WIF0-99" edge="1">
          <mxGeometry relative="1" as="geometry" />
        </mxCell>
        <mxCell id="GFVc-yYqWS1LC9z0WIF0-194" value="fin" style="shape=parallelogram;perimeter=parallelogramPerimeter;whiteSpace=wrap;html=1;fixedSize=1;" parent="1" vertex="1">
          <mxGeometry x="231.26" y="190" width="70" height="20" as="geometry" />
        </mxCell>
        <mxCell id="GFVc-yYqWS1LC9z0WIF0-200" value="" style="edgeStyle=orthogonalEdgeStyle;rounded=0;orthogonalLoop=1;jettySize=auto;html=1;" parent="1" source="GFVc-yYqWS1LC9z0WIF0-199" target="GFVc-yYqWS1LC9z0WIF0-97" edge="1">
          <mxGeometry relative="1" as="geometry" />
        </mxCell>
        <mxCell id="GFVc-yYqWS1LC9z0WIF0-199" value="INICIO" style="rounded=1;whiteSpace=wrap;html=1;" parent="1" vertex="1">
          <mxGeometry x="227.5" y="50" width="80" height="40" as="geometry" />
        </mxCell>
        <mxCell id="GFVc-yYqWS1LC9z0WIF0-201" value="FIN" style="rounded=1;whiteSpace=wrap;html=1;" parent="1" vertex="1">
          <mxGeometry x="637.5" y="340" width="82.5" height="40" as="geometry" />
        </mxCell>
        <mxCell id="GFVc-yYqWS1LC9z0WIF0-203" value="FIN" style="rounded=1;whiteSpace=wrap;html=1;" parent="1" vertex="1">
          <mxGeometry x="637.5" y="467.5" width="82.5" height="35" as="geometry" />
        </mxCell>
        <mxCell id="GFVc-yYqWS1LC9z0WIF0-205" value="FIN" style="rounded=1;whiteSpace=wrap;html=1;" parent="1" vertex="1">
          <mxGeometry x="633.75" y="620" width="86.25" height="40" as="geometry" />
        </mxCell>
        <mxCell id="GFVc-yYqWS1LC9z0WIF0-207" value="FIN" style="rounded=1;whiteSpace=wrap;html=1;" parent="1" vertex="1">
          <mxGeometry x="481.5" y="747.5" width="73" height="35" as="geometry" />
        </mxCell>
        <mxCell id="GFVc-yYqWS1LC9z0WIF0-209" value="FIN" style="rounded=1;whiteSpace=wrap;html=1;" parent="1" vertex="1">
          <mxGeometry x="957.5" y="887.5" width="67.5" height="35" as="geometry" />
        </mxCell>
        <mxCell id="GFVc-yYqWS1LC9z0WIF0-211" value="FIN" style="rounded=1;whiteSpace=wrap;html=1;" parent="1" vertex="1">
          <mxGeometry x="957.5" y="1035" width="67.5" height="30" as="geometry" />
        </mxCell>
        <mxCell id="GFVc-yYqWS1LC9z0WIF0-213" value="FIN" style="rounded=1;whiteSpace=wrap;html=1;" parent="1" vertex="1">
          <mxGeometry x="957.49" y="1196" width="67.51" height="36" as="geometry" />
        </mxCell>
        <mxCell id="GFVc-yYqWS1LC9z0WIF0-215" value="FIN" style="rounded=1;whiteSpace=wrap;html=1;" parent="1" vertex="1">
          <mxGeometry x="957.5" y="1350.75" width="74.5" height="39.5" as="geometry" />
        </mxCell>
        <mxCell id="GFVc-yYqWS1LC9z0WIF0-217" value="FIN" style="rounded=1;whiteSpace=wrap;html=1;" parent="1" vertex="1">
          <mxGeometry x="990" y="1496.75" width="72.5" height="35.5" as="geometry" />
        </mxCell>
        <mxCell id="GFVc-yYqWS1LC9z0WIF0-220" value="FIN" style="rounded=1;whiteSpace=wrap;html=1;" parent="1" vertex="1">
          <mxGeometry x="1040" y="1665.25" width="75.5" height="36.49" as="geometry" />
        </mxCell>
      </root>
    </mxGraphModel>
  </diagram>
</mxfile>
